<svg id="svg" version="1.1" xmlns="http://www.w3.org/2000/svg" xmlns:xlink="http://www.w3.org/1999/xlink" width="400" height="400" viewBox="0, 0, 400,400"><g id="svgg"><path id="path0" d="M267.235 54.823 C 263.035 56.766,261.416 59.032,257.394 68.600 C 256.376 71.020,255.306 73.540,255.016 74.200 C 254.725 74.860,253.922 76.750,253.231 78.400 C 252.540 80.050,251.720 81.940,251.408 82.600 C 251.096 83.260,250.361 84.970,249.774 86.400 C 249.188 87.830,248.383 89.720,247.987 90.600 C 247.591 91.480,246.429 94.180,245.405 96.600 C 244.382 99.020,243.306 101.540,243.016 102.200 C 242.725 102.860,241.922 104.750,241.231 106.400 C 240.540 108.050,239.720 109.940,239.408 110.600 C 239.096 111.260,238.361 112.970,237.774 114.400 C 237.188 115.830,236.383 117.720,235.986 118.600 C 232.469 126.396,232.299 126.927,232.099 130.716 C 231.752 137.290,232.795 138.878,242.832 147.062 C 246.838 150.328,251.420 154.080,253.016 155.400 C 254.611 156.720,257.483 159.060,259.397 160.600 C 262.736 163.287,269.016 168.485,270.519 169.806 C 271.716 170.858,264.813 183.970,256.438 196.549 C 254.370 199.657,252.336 202.650,251.919 203.200 C 251.503 203.750,249.236 206.687,246.881 209.727 C 244.526 212.766,242.117 215.916,241.527 216.727 C 238.753 220.535,223.137 236.243,218.195 240.196 C 216.555 241.508,212.462 244.905,209.600 247.330 C 209.270 247.610,208.550 248.132,208.000 248.491 C 207.450 248.851,206.010 249.865,204.800 250.747 C 195.707 257.369,187.342 262.530,177.400 267.652 L 170.600 271.155 167.800 267.776 C 166.260 265.917,163.650 262.778,162.000 260.800 C 160.350 258.822,157.740 255.667,156.200 253.788 C 154.660 251.910,153.040 249.957,152.600 249.448 C 152.160 248.938,150.450 246.839,148.800 244.783 C 136.142 229.006,133.998 228.613,113.000 238.222 C 112.340 238.524,109.640 239.690,107.000 240.813 C 104.360 241.937,100.400 243.633,98.200 244.584 C 96.000 245.534,92.400 247.070,90.200 247.997 C 88.000 248.924,85.660 249.926,85.000 250.224 C 84.340 250.522,81.910 251.571,79.600 252.555 C 77.290 253.539,73.150 255.316,70.400 256.503 C 67.650 257.691,64.202 259.163,62.738 259.775 C 55.442 262.824,51.893 270.623,54.158 278.627 C 54.465 279.712,55.115 282.400,55.603 284.600 C 56.090 286.800,57.016 290.850,57.660 293.600 C 58.859 298.726,59.895 303.213,61.260 309.200 C 61.687 311.070,62.463 314.400,62.985 316.600 C 63.507 318.800,64.317 322.310,64.785 324.400 C 68.300 340.114,69.567 342.584,75.484 345.267 L 78.193 346.496 88.997 346.288 C 94.938 346.174,101.330 345.885,103.200 345.647 C 105.070 345.409,108.400 345.028,110.600 344.800 C 119.372 343.893,121.915 343.572,124.600 343.037 C 126.140 342.730,129.020 342.180,131.000 341.814 C 132.980 341.449,135.770 340.887,137.200 340.565 C 138.630 340.243,141.690 339.554,144.000 339.035 C 152.251 337.178,169.633 331.840,173.400 330.005 C 173.840 329.791,175.640 329.088,177.400 328.444 C 185.883 325.338,203.348 317.111,211.200 312.522 C 213.070 311.429,215.770 309.890,217.200 309.103 C 219.490 307.842,225.951 303.596,236.712 296.281 C 238.534 295.043,241.234 293.017,242.712 291.780 C 244.190 290.542,245.912 289.140,246.538 288.665 C 247.164 288.189,248.514 287.068,249.538 286.173 C 250.562 285.278,252.930 283.267,254.800 281.705 C 263.815 274.174,276.621 261.145,285.177 250.800 C 291.756 242.845,294.776 238.911,298.400 233.572 C 299.170 232.438,300.096 231.190,300.458 230.798 C 300.819 230.406,301.860 228.851,302.770 227.342 C 303.680 225.834,305.131 223.520,305.994 222.200 C 307.458 219.961,310.220 215.373,311.602 212.884 C 311.933 212.288,312.677 210.990,313.255 210.000 C 313.834 209.010,316.194 204.420,318.499 199.800 C 322.048 192.689,323.668 189.233,325.999 183.800 C 330.606 173.062,337.047 153.340,339.192 143.400 C 339.667 141.200,340.304 138.320,340.607 137.000 C 340.911 135.680,341.456 132.980,341.819 131.000 C 342.182 129.020,342.730 126.140,343.037 124.600 C 343.572 121.915,343.893 119.372,344.800 110.600 C 345.028 108.400,345.409 105.070,345.647 103.200 C 345.885 101.330,346.174 94.938,346.288 88.997 L 346.496 78.193 345.241 75.426 C 342.608 69.620,339.801 68.179,324.600 64.823 C 322.400 64.338,318.800 63.512,316.600 62.988 C 314.400 62.464,311.070 61.687,309.200 61.260 C 303.213 59.895,298.726 58.859,293.600 57.660 C 290.850 57.016,286.800 56.090,284.600 55.603 C 282.400 55.115,279.712 54.465,278.627 54.158 C 275.104 53.161,270.210 53.447,267.235 54.823 " stroke="none" fill="#fbfbfb" fill-rule="evenodd"></path><path id="path1" d="M0.000 200.000 L 0.000 400.000 200.000 400.000 L 400.000 400.000 400.000 200.000 L 400.000 0.000 200.000 0.000 L 0.000 0.000 0.000 200.000 M278.627 54.158 C 279.712 54.465,282.400 55.115,284.600 55.603 C 286.800 56.090,290.850 57.016,293.600 57.660 C 298.726 58.859,303.213 59.895,309.200 61.260 C 311.070 61.687,314.400 62.464,316.600 62.988 C 318.800 63.512,322.400 64.338,324.600 64.823 C 339.801 68.179,342.608 69.620,345.241 75.426 L 346.496 78.193 346.288 88.997 C 346.174 94.938,345.885 101.330,345.647 103.200 C 345.409 105.070,345.028 108.400,344.800 110.600 C 343.893 119.372,343.572 121.915,343.037 124.600 C 342.730 126.140,342.182 129.020,341.819 131.000 C 341.456 132.980,340.911 135.680,340.607 137.000 C 340.304 138.320,339.667 141.200,339.192 143.400 C 337.047 153.340,330.606 173.062,325.999 183.800 C 323.668 189.233,322.048 192.689,318.499 199.800 C 316.194 204.420,313.834 209.010,313.255 210.000 C 312.677 210.990,311.933 212.288,311.602 212.884 C 310.220 215.373,307.458 219.961,305.994 222.200 C 305.131 223.520,303.680 225.834,302.770 227.342 C 301.860 228.851,300.819 230.406,300.458 230.798 C 300.096 231.190,299.170 232.438,298.400 233.572 C 294.776 238.911,291.756 242.845,285.177 250.800 C 276.621 261.145,263.815 274.174,254.800 281.705 C 252.930 283.267,250.562 285.278,249.538 286.173 C 248.514 287.068,247.164 288.189,246.538 288.665 C 245.912 289.140,244.190 290.542,242.712 291.780 C 241.234 293.017,238.534 295.043,236.712 296.281 C 225.951 303.596,219.490 307.842,217.200 309.103 C 215.770 309.890,213.070 311.429,211.200 312.522 C 203.348 317.111,185.883 325.338,177.400 328.444 C 175.640 329.088,173.840 329.791,173.400 330.005 C 169.633 331.840,152.251 337.178,144.000 339.035 C 141.690 339.554,138.630 340.243,137.200 340.565 C 135.770 340.887,132.980 341.449,131.000 341.814 C 129.020 342.180,126.140 342.730,124.600 343.037 C 121.915 343.572,119.372 343.893,110.600 344.800 C 108.400 345.028,105.070 345.409,103.200 345.647 C 101.330 345.885,94.938 346.174,88.997 346.288 L 78.193 346.496 75.484 345.267 C 69.567 342.584,68.300 340.114,64.785 324.400 C 64.317 322.310,63.507 318.800,62.985 316.600 C 62.463 314.400,61.687 311.070,61.260 309.200 C 59.895 303.213,58.859 298.726,57.660 293.600 C 57.016 290.850,56.090 286.800,55.603 284.600 C 55.115 282.400,54.465 279.712,54.158 278.627 C 51.893 270.623,55.442 262.824,62.738 259.775 C 64.202 259.163,67.650 257.691,70.400 256.503 C 73.150 255.316,77.290 253.539,79.600 252.555 C 81.910 251.571,84.340 250.522,85.000 250.224 C 85.660 249.926,88.000 248.924,90.200 247.997 C 92.400 247.070,96.000 245.534,98.200 244.584 C 100.400 243.633,104.360 241.937,107.000 240.813 C 109.640 239.690,112.340 238.524,113.000 238.222 C 133.998 228.613,136.142 229.006,148.800 244.783 C 150.450 246.839,152.160 248.938,152.600 249.448 C 153.040 249.957,154.660 251.910,156.200 253.788 C 157.740 255.667,160.350 258.822,162.000 260.800 C 163.650 262.778,166.260 265.917,167.800 267.776 L 170.600 271.155 177.400 267.652 C 187.342 262.530,195.707 257.369,204.800 250.747 C 206.010 249.865,207.450 248.851,208.000 248.491 C 208.550 248.132,209.270 247.610,209.600 247.330 C 212.462 244.905,216.555 241.508,218.195 240.196 C 223.137 236.243,238.753 220.535,241.527 216.727 C 242.117 215.916,244.526 212.766,246.881 209.727 C 249.236 206.687,251.503 203.750,251.919 203.200 C 252.336 202.650,254.370 199.657,256.438 196.549 C 264.813 183.970,271.716 170.858,270.519 169.806 C 269.016 168.485,262.736 163.287,259.397 160.600 C 257.483 159.060,254.611 156.720,253.016 155.400 C 251.420 154.080,246.838 150.328,242.832 147.062 C 232.795 138.878,231.752 137.290,232.099 130.716 C 232.299 126.927,232.469 126.396,235.986 118.600 C 236.383 117.720,237.188 115.830,237.774 114.400 C 238.361 112.970,239.096 111.260,239.408 110.600 C 239.720 109.940,240.540 108.050,241.231 106.400 C 241.922 104.750,242.725 102.860,243.016 102.200 C 243.306 101.540,244.382 99.020,245.405 96.600 C 246.429 94.180,247.591 91.480,247.987 90.600 C 248.383 89.720,249.188 87.830,249.774 86.400 C 250.361 84.970,251.096 83.260,251.408 82.600 C 251.720 81.940,252.540 80.050,253.231 78.400 C 253.922 76.750,254.725 74.860,255.016 74.200 C 255.306 73.540,256.376 71.020,257.394 68.600 C 261.416 59.032,263.035 56.766,267.235 54.823 C 270.210 53.447,275.104 53.161,278.627 54.158 " stroke="none" fill="#2DBCB4" fill-rule="evenodd"></path></g></svg>