<?xml version="1.0" encoding="UTF-8" standalone="no"?>
<svg xmlns="http://www.w3.org/2000/svg" version="1.1" viewBox="0 0 18 18">
<g transform="translate(0 -1034.4)">
<path fill="#677381" d="m7.9966 1045.7v-0.3955q0-0.8569 0.26367-1.4062 0.26367-0.5567 0.98145-1.1719 0.99609-0.8423 1.2524-1.2671 0.26367-0.4248 0.26367-1.0254 0-0.7471-0.4834-1.1499-0.47607-0.4101-1.377-0.4101-0.57861 0-1.1279 0.1391-0.54932 0.1319-1.2598 0.4907l-0.43213-0.9887q1.3843-0.7251 2.8931-0.7251 1.3989 0 2.1753 0.6884 0.77637 0.6885 0.77637 1.941 0 0.5346-0.14648 0.9448-0.13916 0.4028-0.41748 0.769-0.27832 0.3589-1.2012 1.1646-0.73975 0.6299-0.98145 1.0473-0.23438 0.4175-0.23438 1.1133v0.2417h-0.94482zm-0.35889 2.1753q0-0.9961 0.87891-0.9961 0.4248 0 0.65186 0.2564 0.23438 0.2563 0.23438 0.7397 0 0.4688-0.23438 0.7324-0.23438 0.2564-0.65186 0.2564-0.38086 0-0.62988-0.2271-0.24902-0.2343-0.24902-0.7617z"/>
</g>
</svg>
